<?xml version="1.0" encoding="UTF-8"?>
<svg width="25px" height="25px" viewBox="0 0 25 25" version="1.1" xmlns="http://www.w3.org/2000/svg" xmlns:xlink="http://www.w3.org/1999/xlink">
    <!-- Generator: Sketch 41.2 (35397) - http://www.bohemiancoding.com/sketch -->
    <title>icon－tianjiawenjian copy 64</title>
    <desc>Created with Sketch.</desc>
    <defs>

        <mask id="mask-4" maskContentUnits="userSpaceOnUse" maskUnits="objectBoundingBox" x="0" y="0" width="70" height="27" fill="white">
            <use xlink:href="#path-3"></use>
        </mask>
    </defs>
    <g id="Page-1" stroke="none" stroke-width="1" fill="none" fill-rule="evenodd">
        <g id="4_07离职管理已离职打印" transform="translate(-141.000000, -131.000000)">
            <g id="添加文件" transform="translate(137.000000, 130.000000)">
                <g id="Group-6">
                    <g>
                        <use id="Rectangle" stroke="#CED0DA" mask="url(#mask-4)" stroke-width="2" fill="url(#linearGradient-2)" xlink:href="#path-3"></use>
                        <path d="M16.999923,13.9997675 L22.5000678,13.9997675 C22.8000419,13.9997675 23,13.7998345 23,13.4997775 C23,13.1997204 22.8000419,12.9997874 22.5000678,12.9997874 L16.999923,12.9997874 L16.999923,7.49999001 C16.999923,7.19993295 16.7999835,7 16.4999907,7 C16.1999424,7 15.9999843,7.20000713 15.9999843,7.49999001 L15.9999843,12.9997874 L10.5000064,12.9997874 C10.1999395,12.9997874 10,13.1997204 10,13.4997775 C10,13.7998345 10.2000137,13.9997675 10.5000064,13.9997675 L15.9999843,13.9997675 L15.9999843,19.4996391 C15.9999843,19.799622 16.1999424,19.9995549 16.4999907,19.9995549 C16.7999835,19.9995549 16.999923,19.799622 16.999923,19.4996391 L16.999923,13.9997675 Z" id="添加文件" fill="#E6E6E6"></path>
                        <rect id="Rectangle-761" x="4" y="1" width="25" height="25"></rect>
                    </g>
                </g>
            </g>
        </g>
    </g>
</svg>